<?xml version="1.0" standalone="no"?>
<svg xmlns="http://www.w3.org/2000/svg" xmlns:xlink="http://www.w3.org/1999/xlink" width="178pt" height="132pt" viewBox="0.00 0.00 177.89 131.60">
<g id="graph0" class="graph" transform="translate(4,127.5999984741211) scale(1)" data-name="ast">

<polygon fill="white" stroke="transparent" points="-4,4 -4,-127.6 173.89,-127.6 173.89,4 -4,4" style=""/>
<!-- Amut -->
<g id="node1" class="node" pointer-events="visible" data-name="Amut">

<polygon fill="none" stroke="black" points="0,-73.5 0,-123.1 72.01,-123.1 72.01,-73.5 0,-73.5" style=""/>
<text text-anchor="middle" x="36" y="-106.5" font-family="Times,serif" font-size="14.00" style="">Amut</text>
<polyline fill="none" stroke="black" points="0,-98.3 72.01,-98.3 " style=""/>
<text text-anchor="middle" x="36" y="-81.7" font-family="Times,serif" font-size="14.00" style="">b: *mut B</text>
</g>
<!-- B -->
<g id="node3" class="node" pointer-events="visible" data-name="B">

<polygon fill="none" stroke="black" points="56,-0.5 56,-36.5 110,-36.5 110,-0.5 56,-0.5" style=""/>
<text text-anchor="middle" x="82.67" y="-14.3" font-family="Times,serif" font-size="14.00" style="">B</text>
</g>
<!-- Amut&#45;&gt;B -->
<g id="edge1" class="edge" data-name="Amut-&gt;B">

<path fill="none" stroke="black" d="M50.62,-73.11C55.9,-64.37 61.88,-54.47 67.25,-45.57" style=""/>
<polygon fill="black" stroke="black" points="70.4,-47.13 72.58,-36.76 64.41,-43.51 70.4,-47.13" style=""/>
</g>
<!-- Aconst -->
<g id="node2" class="node" pointer-events="visible" data-name="Aconst">

<polygon fill="none" stroke="black" points="90.11,-73.5 90.11,-123.1 169.89,-123.1 169.89,-73.5 90.11,-73.5" style=""/>
<text text-anchor="middle" x="130" y="-106.5" font-family="Times,serif" font-size="14.00" style="">Aconst</text>
<polyline fill="none" stroke="black" points="90.11,-98.3 169.89,-98.3 " style=""/>
<text text-anchor="middle" x="130" y="-81.7" font-family="Times,serif" font-size="14.00" style="">b: *const B</text>
</g>
<!-- Aconst&#45;&gt;B -->
<g id="edge2" class="edge" data-name="Aconst-&gt;B">

<path fill="none" stroke="black" d="M115.39,-73.11C110.11,-64.37 104.13,-54.47 98.75,-45.57" style=""/>
<polygon fill="black" stroke="black" points="101.6,-43.51 93.43,-36.76 95.61,-47.13 101.6,-43.51" style=""/>
</g>
</g>
</svg>